#!OML:ASF H:\Terrain\Patient Classification 1\PLAYGROUND\JustinFriday\JustinFriday.ASF
:FULLY-SPECIFIED
:DEGREES
899
root -7.80151 16.916 12.0043 -34.7156 -7.0208 23.8836
lowerback 16.6625 4.13801 -3.79464
upperback -1.50063 3.8957 -7.94214
thorax -10.7483 1.78341 -7.66612
lowerneck 11.7986 -2.30829 -15.4448
upperneck 18.415 -5.14211 4.62967
head 4.24283 -3.45425 3.96637
rclavicle -1.33186e-014 -1.45113e-014
rhumerus 87.6603 9.28475 -65.4585
rradius 66.7296
rwrist -410.601
rhand 10.9013 -32.3025
rfingers 7.12502
rthumb 35.9807 -58.6237
lclavicle -1.33186e-014 -1.45113e-014
lhumerus 61.7376 -4.11165 81.2658
lradius 72.0501
lwrist 24.4298
lhand -23.1499 -2.10763
lfingers 7.12502
lthumb 3.29834 27.8466
rfemur 0.880291 -36.8837 1.1273
rtibia 105.689
rfoot -2.51574 -3.21721
rtoes 16.7391
lfemur -10.8688 -7.88753 10.4769
ltibia 104.644
lfoot -10.8216 -11.4061
ltoes -3.67443
900
root -7.6882 16.8355 11.979 -34.4069 -14.2998 15.6411
lowerback 18.059 3.52973 6.70657
upperback -1.63257 5.66077 -4.8823
thorax -10.8032 2.11403 -10.8243
lowerneck 12.5219 -2.14503 -15.4014
upperneck 18.0707 -5.0488 4.75681
head 4.01653 -3.39741 4.01539
rclavicle 2.11706e-014 -1.27222e-014
rhumerus 87.4694 9.2136 -65.3738
rradius 66.6739
rwrist -410.546
rhand 10.8734 -32.7239
rfingers 7.12502
rthumb 35.9542 -59.0517
lclavicle 2.11706e-014 -1.27222e-014
lhumerus 61.257 -4.27149 81.264
lradius 72.2995
lwrist 24.4567
lhand -23.2948 -1.97965
lfingers 7.12502
lthumb 3.15839 27.9767
rfemur 0.3224 -35.552 17.1486
rtibia 104.405
rfoot -2.12599 -7.71101
rtoes 14.0265
lfemur -10.0197 -6.818 27.2992
ltibia 104.259
lfoot -11.4628 -17.3564
ltoes -3.66188
901
root -7.57677 16.8911 11.8934 -33.0324 -13.4218 16.7422
lowerback 16.9527 3.6036 5.68203
upperback -2.06608 5.44003 -5.3454
thorax -10.7545 2.04678 -10.6172
lowerneck 12.8254 -2.15044 -15.314
upperneck 17.9328 -5.08669 4.67298
head 3.92846 -3.41203 3.97953
rclavicle 1.19271e-015 4.85035e-014
rhumerus 87.2044 9.3147 -65.4216
rradius 66.9486
rwrist -410.391
rhand 11.2082 -32.9378
rfingers 7.12502
rthumb 36.2714 -59.1872
lclavicle 1.19271e-015 4.85035e-014
lhumerus 60.9718 -4.29722 81.2011
lradius 72.5024
lwrist 24.5843
lhand -23.8266 -2.42341
lfingers 7.12502
lthumb 2.64485 27.5399
rfemur -2.25058 -36.1409 17.3965
rtibia 104.618
rfoot -1.84003 -7.58078
rtoes 14.7827
lfemur -12.6495 -6.29734 25.8199
ltibia 104.61
lfoot -10.1146 -17.3272
ltoes -0.00907809
902
root -7.5252 16.9465 11.9349 -35.4544 -11.9558 19.47
lowerback 18.0484 3.84033 3.32082
upperback -1.25398 5.1896 -6.1094
thorax -10.6491 2.06967 -10.1185
lowerneck 13.398 -2.15493 -15.3469
upperneck 17.5871 -5.2135 4.88759
head 3.75205 -3.46616 4.06337
rclavicle -1.68967e-014 -5.08889e-014
rhumerus 86.5739 9.40656 -65.5814
rradius 67.6972
rwrist -410.233
rhand 11.6649 -32.6342
rfingers 7.12502
rthumb 36.7037 -58.7747
lclavicle -1.68967e-014 -5.08889e-014
lhumerus 60.7706 -4.36553 81.0508
lradius 72.7148
lwrist 24.5925
lhand -24.0049 -2.99089
lfingers 7.12502
lthumb 2.47259 26.9745
rfemur 2.08643 -36.001 11.4585
rtibia 104.059
rfoot -1.99342 -5.81616
rtoes 14.9474
lfemur -9.98756 -8.69454 20.9239
ltibia 103.782
lfoot -10.3679 -15.8026
ltoes 1.69158
903
root -7.39316 16.9443 11.8549 -33.8754 -14.5259 16.4347
lowerback 17.7493 3.51234 7.31009
upperback -1.66483 5.73593 -5.08759
thorax -10.5683 2.12597 -11.3966
lowerneck 13.7134 -2.13897 -15.3837
upperneck 17.5297 -5.25987 4.98527
head 3.69487 -3.49162 4.10666
rclavicle -2.66371e-014 1.74931e-014
rhumerus 86.7176 9.34736 -65.5878
rradius 67.754
rwrist -410.46
rhand 11.5784 -32.6698
rfingers 7.12502
rthumb 36.6218 -58.8311
lclavicle -2.66371e-014 1.74931e-014
lhumerus 60.832 -4.49335 81.0066
lradius 72.5068
lwrist 24.3476
lhand -24.1452 -3.39296
lfingers 7.12502
lthumb 2.33716 26.574
rfemur -0.457534 -36.0278 18.7001
rtibia 103.804
rfoot -1.69809 -7.49505
rtoes 14.5524
lfemur -11.6759 -7.82284 27.1926
ltibia 103.899
lfoot -10.0703 -18.16
ltoes 2.1143
904
root -7.28576 16.9422 11.8357 -34.286 -16.1865 15.5523
lowerback 18.4772 3.42444 8.82818
upperback -1.52069 6.07296 -4.455
thorax -10.662 2.21312 -11.7022
lowerneck 13.2022 -2.1047 -15.2466
upperneck 18.1465 -5.06698 4.50617
head 3.93381 -3.4171 3.92305
rclavicle 2.0276e-014 -1.51076e-014
rhumerus 86.5959 9.69915 -65.6122
rradius 68.1359
rwrist -410.733
rhand 11.4897 -32.9706
rfingers 7.12502
rthumb 36.5379 -59.1531
lclavicle 2.0276e-014 -1.51076e-014
lhumerus 60.8403 -4.32717 81.0692
lradius 72.3186
lwrist 24.0284
lhand -24.2821 -4.01552
lfingers 7.12502
lthumb 2.20491 25.9528
rfemur 0.166693 -35.6848 21.0061
rtibia 103.619
rfoot -1.65888 -8.02678
rtoes 14.1397
lfemur -10.9033 -8.03668 29.8022
ltibia 103.554
lfoot -10.3749 -19.145
ltoes 0.900712
905
root -7.17478 16.9524 11.7977 -34.468 -17.1784 15.4373
lowerback 19.2856 3.6382 9.66366
upperback -1.86641 6.6554 -4.28563
thorax -11.306 2.36578 -12.2669
lowerneck 13.4166 -2.37333 -14.4302
upperneck 18.9573 -5.28919 3.69842
head 4.13964 -3.53451 3.53581
rclavicle -2.22639e-014 2.5842e-014
rhumerus 85.2291 9.64915 -65.7203
rradius 68.6758
rwrist -410.85
rhand 11.3949 -33.1606
rfingers 7.12502
rthumb 36.4481 -59.3657
lclavicle -2.22639e-014 2.5842e-014
lhumerus 60.0431 -5.07979 81.4141
lradius 72.6133
lwrist 24.0684
lhand -24.1319 -4.78363
lfingers 7.12502
lthumb 2.34996 25.1832
rfemur 0.273606 -35.1577 22.5286
rtibia 103.341
rfoot -1.55548 -8.41123
rtoes 15.8963
lfemur -10.7426 -8.06738 30.9533
ltibia 103.459
lfoot -10.5598 -19.4327
ltoes -0.559763
906
root -7.0413 16.9343 11.7498 -34.6035 -19.4549 13.5861
lowerback 19.7254 3.14694 12.0252
upperback -0.849026 6.68074 -3.1503
thorax -10.2675 2.42337 -12.2708
lowerneck 12.9868 -1.9636 -16.0729
upperneck 17.2565 -4.93968 4.71471
head 3.70815 -3.35777 4.11612
rclavicle -3.97569e-016 -1.11319e-014
rhumerus 87.3171 9.72778 -65.1556
rradius 68.9144
rwrist -411.562
rhand 11.1069 -33.2753
rfingers 7.12502
rthumb 36.1754 -59.5485
lclavicle -3.97569e-016 -1.11319e-014
lhumerus 61.3892 -3.67687 81.4285
lradius 72.8358
lwrist 24.198
lhand -24.2893 -5.61062
lfingers 7.12502
lthumb 2.19799 24.3578
rfemur 0.577765 -34.7045 26.3563
rtibia 103.074
rfoot -1.13537 -9.36491
rtoes 15.3686
lfemur -10.3187 -8.48366 34.8452
ltibia 103.289
lfoot -10.3495 -20.4936
ltoes -0.153193
907
root -6.9672 16.9778 11.7191 -34.8975 -18.7935 15.4989
lowerback 19.8455 3.53394 10.2894
upperback -1.25616 6.75573 -3.71727
thorax -10.8968 2.45997 -12.0001
lowerneck 13.6326 -1.95709 -15.4341
upperneck 17.8999 -4.93839 4.32567
head 3.78692 -3.36573 3.9034
rclavicle -4.17448e-014 2.38542e-014
rhumerus 85.8822 9.99727 -65.4647
rradius 69.5992
rwrist -411.368
rhand 10.8979 -33.0954
rfingers 7.12502
rthumb 35.9775 -59.4174
lclavicle -4.17448e-014 2.38542e-014
lhumerus 60.6324 -4.15811 81.1025
lradius 72.9161
lwrist 24.085
lhand -24.8968 -6.03337
lfingers 7.12502
lthumb 1.6112 23.9403
rfemur 0.607949 -34.5956 24.5788
rtibia 103.187
rfoot -0.995202 -9.0537
rtoes 15.666
lfemur -10.2065 -8.67017 32.3623
ltibia 103.108
lfoot -10.0913 -19.9008
ltoes 1.9312
908
root -6.88616 17.0137 11.6946 -35.1834 -18.2386 17.2006
lowerback 19.7112 3.73867 8.74329
upperback -1.17138 6.59992 -4.08252
thorax -10.8825 2.47297 -11.4665
lowerneck 13.3283 -1.94163 -15.6239
upperneck 18.147 -4.8791 4.23388
head 3.90946 -3.35735 3.89907
rclavicle 1.07344e-014 -7.95139e-015
rhumerus 85.9207 10.0511 -65.3309
rradius 69.6909
rwrist -411.246
rhand 11.1714 -32.9555
rfingers 7.12502
rthumb 36.2365 -59.2136
lclavicle 1.07344e-014 -7.95139e-015
lhumerus 60.4967 -3.96755 80.9616
lradius 73.1948
lwrist 23.7127
lhand -25.0936 -4.97274
lfingers 7.12502
lthumb 1.42115 25.0023
rfemur 0.797411 -34.5809 22.8992
rtibia 103.314
rfoot -0.859756 -8.70775
rtoes 14.5676
lfemur -10.1239 -8.84936 30.1983
ltibia 102.949
lfoot -9.71269 -19.3995
ltoes 3.38367
909
root -6.77416 17.0371 11.6608 -34.9002 -18.7695 16.9567
lowerback 19.7186 3.56148 9.49501
upperback -1.08667 6.56342 -3.87605
thorax -10.7445 2.43358 -11.6463
lowerneck 12.104 -2.0904 -15.6355
upperneck 19.0375 -4.81437 3.73599
head 4.36166 -3.36464 3.72012
rclavicle 1.19271e-014 -2.38542e-014
rhumerus 86.4195 10.0017 -65.13
rradius 69.2667
rwrist -411.266
rhand 11.8615 -32.8026
rfingers 7.12502
rthumb 36.8897 -58.8955
lclavicle 1.19271e-014 -2.38542e-014
lhumerus 60.3904 -3.63486 81.0757
lradius 73.5492
lwrist 23.3489
lhand -24.9327 -3.71333
lfingers 7.12502
lthumb 1.5766 26.2606
rfemur 0.812987 -34.7377 23.8316
rtibia 103.275
rfoot -0.540526 -8.77904
rtoes 13.7729
lfemur -10.4684 -9.02632 30.8539
ltibia 102.9
lfoot -9.68073 -19.1664
ltoes 1.46081
910
root -6.68397 17.0874 11.6388 -34.8834 -18.1785 18.239
lowerback 19.3537 3.52013 8.46936
upperback -1.04087 6.203 -4.14257
thorax -10.6494 2.32492 -11.2248
lowerneck 10.8967 -2.07892 -15.6232
upperneck 19.982 -4.50815 3.13176
head 4.80941 -3.26454 3.50904
rclavicle -7.95139e-016 1.82882e-014
rhumerus 86.5657 10.3589 -65.0343
rradius 69.4281
rwrist -411.406
rhand 12.1288 -32.5572
rfingers 7.12502
rthumb 37.1425 -58.5847
lclavicle -7.95139e-016 1.82882e-014
lhumerus 60.0429 -3.26307 81.314
lradius 73.9089
lwrist 22.8062
lhand -25.0095 -3.48272
lfingers 7.12502
lthumb 1.50242 26.4917
rfemur 1.04503 -34.7716 22.3723
rtibia 103.391
rfoot -0.716022 -8.27996
rtoes 15.2065
lfemur -10.5505 -9.29086 28.8309
ltibia 102.916
lfoot -10.4189 -17.7978
ltoes -1.6478
911
root -6.61551 17.1821 11.6223 -35.6306 -14.3981 23.2984
lowerback 18.6065 3.90773 3.07054
upperback -0.891724 5.24547 -5.96194
thorax -10.5823 2.12765 -9.84788
lowerneck 12.4115 -2.31144 -15.507
upperneck 17.8934 -5.09317 3.19546
head 3.97464 -3.46694 3.52548
rclavicle -7.67309e-014 -1.90833e-014
rhumerus 86.2718 10.3749 -65.2112
rradius 69.869
rwrist -411.342
rhand 12.2115 -32.5701
rfingers 7.12502
rthumb 37.2208 -58.5772
lclavicle -7.67309e-014 -1.90833e-014
lhumerus 60.1441 -3.35735 81.2722
lradius 74.1079
lwrist 22.9238
lhand -24.8262 -3.06712
lfingers 7.12502
lthumb 1.67942 26.906
rfemur 1.84545 -35.2367 14.1357
rtibia 103.971
rfoot -0.977482 -6.08715
rtoes 17.5206
lfemur -10.6486 -10.4401 19.535
ltibia 102.953
lfoot -10.3551 -14.7227
ltoes -1.06853
